<svg xmlns="http://www.w3.org/2000/svg" width="15" viewBox="0 0 15 18">
  <g  transform="translate(-4 -2.4)"><g ><path d="M15.25,9.9a.75.75,0,0,1-.53-1.28l2.469-2.47L14.72,3.68a.75.75,0,1,1,1.06-1.06l3,3a.749.749,0,0,1,0,1.06l-3,3A.744.744,0,0,1,15.25,9.9Z"/> </g> <g ><path d="M4.75,11.4A.75.75,0,0,1,4,10.65V9.15A3.754,3.754,0,0,1,7.75,5.4h10.5a.75.75,0,0,1,0,1.5H7.75A2.252,2.252,0,0,0,5.5,9.15v1.5A.75.75,0,0,1,4.75,11.4Z"/> </g> <g ><path d="M7.75,20.4a.744.744,0,0,1-.53-.22l-3-3a.749.749,0,0,1,0-1.06l3-3a.75.75,0,0,1,1.06,1.06L5.811,16.65,8.28,19.12a.75.75,0,0,1-.53,1.28Z"/></g> <g> <path id="Path_14" data-name="Path 14" d="M15.25,17.4H4.75a.75.75,0,0,1,0-1.5h10.5a2.252,2.252,0,0,0,2.25-2.25v-1.5a.75.75,0,0,1,1.5,0v1.5A3.754,3.754,0,0,1,15.25,17.4Z"/> </g></g>
</svg>
