<svg xmlns="http://www.w3.org/2000/svg" width="18" height="13.5" viewBox="0 0 18 13.5"> <g transform="translate(-2.4 -4.8)"> <g> 
    <path d="M11.4,18.3c-5.648,0-8.79-6.153-8.921-6.415a.752.752,0,0,1,0-.67C2.61,10.953,5.752,4.8,11.4,4.8s8.79,6.153,8.921,6.415a.752.752,0,0,1,0,.67C20.19,12.147,17.048,18.3,11.4,18.3ZM4.007,11.549c.7,1.207,3.36,5.251,7.393,5.251s6.693-4.042,7.394-5.249C18.091,10.344,15.433,6.3,11.4,6.3S4.707,10.342,4.007,11.549Z"/></g><g>
    <path d="M11.4,14.55a3,3,0,1,1,3-3A3,3,0,0,1,11.4,14.55Zm0-4.5a1.5,1.5,0,1,0,1.5,1.5A1.5,1.5,0,0,0,11.4,10.05Z"/></g></g>
</svg>
