<?xml version="1.0" encoding="utf-8"?>
<!-- Generator: Adobe Illustrator 24.3.0, SVG Export Plug-In . SVG Version: 6.00 Build 0)  -->
<svg version="1.1" id="Layer_1" xmlns="http://www.w3.org/2000/svg" xmlns:xlink="http://www.w3.org/1999/xlink" x="0px" y="0px"
	 viewBox="0 0 424.2 78.8" enable-background="new 0 0 424.2 78.8" xml:space="preserve">
<g>
	<g>
		<path fill="#27334F" d="M92.3,52.8l8.5-1.8c0.2,2.1,1,3.7,2.4,5c1.4,1.3,3.4,1.9,6,1.9c2.4,0,4.2-0.4,5.6-1.3c1.3-0.9,2-2.1,2-3.6
			c0-1.3-0.6-2.3-1.7-3.1c-1.1-0.8-2.5-1.4-4.2-1.8c-1.6-0.4-3.5-0.9-5.5-1.4c-2-0.5-3.8-1.1-5.5-1.9c-1.7-0.7-3.1-2-4.2-3.8
			c-1.1-1.8-1.7-4-1.7-6.6c0-3.7,1.4-6.9,4.2-9.4c2.8-2.5,6.6-3.8,11.4-3.8c4.5,0,8.2,1.2,10.9,3.6c2.8,2.4,4.4,5.4,4.9,9.2
			l-8.5,1.6c-0.1-1.9-0.8-3.5-2.1-4.7c-1.3-1.2-3.1-1.8-5.3-1.8c-2.1,0-3.7,0.5-5,1.4c-1.2,0.9-1.9,2.1-1.9,3.5
			c0,1.2,0.4,2.1,1.3,2.8c0.8,0.7,1.9,1.3,3.3,1.7c1.3,0.4,2.8,0.8,4.4,1.2c1.6,0.5,3.2,0.9,4.9,1.4c1.7,0.5,3.2,1.1,4.5,2
			c1.3,0.9,2.4,2.1,3.3,3.8c0.8,1.7,1.3,3.6,1.3,5.9c0,3.9-1.6,7-4.7,9.5c-3.1,2.4-7.2,3.7-12.3,3.7c-5.2,0-9.1-1.2-11.8-3.7
			C94.3,59.6,92.7,56.5,92.3,52.8z"/>
		<path fill="#27334F" d="M140,19.6v16.6c1.8-2.4,4.7-3.6,8.8-3.6c3.7,0,6.6,1.1,8.6,3.4c2,2.3,3,5.3,3,9.2v19.8h-8.6V46.1
			c0-4.1-1.8-6.2-5.4-6.2c-2.1,0-3.6,0.6-4.8,1.8c-1.1,1.2-1.7,2.9-1.7,5.1v18.1h-8.6V19.6H140z"/>
		<path fill="#27334F" d="M211.2,61.5v16h-8.6V33.2h7.9v3.9c2.1-3.1,5.4-4.6,10-4.6c4.5,0,8,1.6,10.6,4.7c2.6,3.1,3.9,7.1,3.9,11.8
			c0,4.8-1.3,8.7-3.9,11.8c-2.6,3.1-6.2,4.7-10.6,4.7c-2.1,0-4-0.4-5.6-1.2C213.3,63.7,212.1,62.7,211.2,61.5z M213.1,42.6
			c-1.4,1.7-2.1,3.8-2.1,6.5c0,2.6,0.7,4.8,2.1,6.5c1.4,1.7,3.3,2.5,5.6,2.5c2.3,0,4.2-0.8,5.6-2.5c1.4-1.7,2.1-3.8,2.1-6.5
			c0-2.6-0.7-4.8-2.1-6.5c-1.4-1.7-3.3-2.5-5.6-2.5C216.4,40.1,214.5,40.9,213.1,42.6z"/>
		<path fill="#27334F" d="M271.3,56.8v8.1h-30.9V22h30.9v8.1h-22.1v9h21.1v8.1h-21.1v9.6H271.3z"/>
		<path fill="#27334F" d="M284.9,33.2v3.9c1.7-3.1,4.8-4.6,9.4-4.6c3.7,0,6.6,1.1,8.6,3.4c2,2.3,3,5.3,3,9.2v19.8h-8.6V46.1
			c0-4.1-1.8-6.2-5.4-6.2c-2.1,0-3.6,0.6-4.8,1.8c-1.1,1.2-1.7,2.9-1.7,5v18.1H277V33.2H284.9z"/>
		<path fill="#27334F" d="M311.7,44.1c0-3.3,1.2-6,3.5-8.2c2.4-2.2,5.5-3.4,9.3-3.4c2.5,0,4.8,0.4,6.6,1.3c0.5-1.5,1.5-2.7,2.9-3.5
			c1.4-0.8,3-1.3,4.9-1.3l1.8,0.2v6.7c0-0.1-0.5-0.2-1.4-0.2c-0.7,0-1.4,0.2-2,0.7c-0.6,0.5-1,1.2-1,2.1v0.6c0.7,1.5,1,3.1,1,5
			c0,3.4-1.2,6.2-3.5,8.4c-2.3,2.2-5.5,3.2-9.4,3.2c-1.2,0-2.2-0.1-3.2-0.3c-1-0.2-1.7-0.4-2.1-0.6l-0.6-0.3
			c-0.5,0.5-0.7,1.1-0.7,1.8c0,0.6,0.2,1.1,0.6,1.4c0.4,0.4,0.8,0.5,1.3,0.5h10.4c3.6,0,6.3,0.9,8.1,2.6c1.8,1.7,2.7,4,2.7,6.8
			c0,3.3-1.4,6-4.2,8c-2.8,2-7,3-12.6,3c-9.7,0-14.5-2.9-14.5-8.7c0-2.7,1.3-4.9,3.9-6.4c-2-1.4-3-3.4-3-5.9c0-2.7,1.1-4.8,3.3-6.5
			C312.5,49.4,311.7,47,311.7,44.1z M329.8,65.9h-10.4c-1.1,0.5-1.7,1.3-1.7,2.4c0,1.2,0.5,2.2,1.6,2.8c1.1,0.6,2.9,0.9,5.5,0.9
			c5.7,0,8.6-1.2,8.6-3.6C333.4,66.7,332.2,65.9,329.8,65.9z M320.7,47.7c1,0.9,2.3,1.3,3.9,1.3c1.6,0,2.9-0.4,3.9-1.3
			c1-0.9,1.5-2.1,1.5-3.6c0-1.5-0.5-2.7-1.4-3.6c-1-0.9-2.3-1.3-3.9-1.3c-1.7,0-3,0.4-3.9,1.3c-1,0.9-1.4,2.1-1.4,3.6
			C319.2,45.6,319.7,46.8,320.7,47.7z"/>
		<path fill="#27334F" d="M352,27.7c-1,1-2.2,1.5-3.7,1.5c-1.5,0-2.8-0.5-3.7-1.5c-1-1-1.5-2.2-1.5-3.7c0-1.5,0.5-2.7,1.5-3.7
			c1-1,2.2-1.5,3.7-1.5c1.5,0,2.8,0.5,3.7,1.5c1,1,1.5,2.2,1.5,3.7C353.5,25.5,353,26.7,352,27.7z M344,64.9V33.2h8.6v31.7H344z"/>
		<path fill="#27334F" d="M367.1,33.2v3.9c1.7-3.1,4.8-4.6,9.4-4.6c3.7,0,6.6,1.1,8.6,3.4c2,2.3,3,5.3,3,9.2v19.8h-8.6V46.1
			c0-4.1-1.8-6.2-5.4-6.2c-2.1,0-3.6,0.6-4.8,1.8c-1.1,1.2-1.7,2.9-1.7,5v18.1h-8.6V33.2H367.1z"/>
		<path fill="#27334F" d="M415.1,54.6l7.9,1.8c-1.2,2.9-3,5.2-5.5,6.8c-2.4,1.6-5.4,2.4-9,2.4c-4.7,0-8.5-1.5-11.5-4.7
			c-3-3.1-4.5-7.1-4.5-12c0-4.7,1.5-8.6,4.5-11.8c3-3.1,6.8-4.7,11.4-4.7c4.6,0,8.4,1.6,11.3,4.7c2.9,3.1,4.4,7.1,4.4,11.8l-0.1,2.5
			h-23c0.3,2.2,1.1,3.8,2.4,5c1.3,1.1,3.1,1.7,5.3,1.7C411.8,58.3,413.9,57,415.1,54.6z M408.4,39.4c-1.9,0-3.5,0.5-4.8,1.6
			c-1.2,1.1-2.1,2.5-2.4,4.4h14.4c-0.3-1.8-1.1-3.3-2.4-4.4C412,40,410.4,39.4,408.4,39.4z"/>
		<g>
			<path fill="#27334F" d="M416.6,18.8v1.1h-2v5.9h-1.2v-5.9h-2v-1.1H416.6z"/>
			<path fill="#27334F" d="M418.6,18.8l2.2,2.9l2.2-2.9h1.1v7H423v-5.1l-2.1,2.7l0,0l-2.1-2.8v5.1h-1.2v-7H418.6z"/>
		</g>
		<path fill="#27334F" d="M193.4,37.3c-3-3.1-6.9-4.7-11.7-4.8V19.6H181v24.8c-0.9,0.2-1.6,1-1.6,1.9v4c0,1.1,0.9,1.9,1.9,1.9
			c1.1,0,1.9-0.9,1.9-1.9v-4c0-0.9-0.7-1.7-1.6-1.9v-4.3c2.2,0.1,4,0.9,5.4,2.4c1.5,1.6,2.3,3.8,2.3,6.6c0,2.8-0.8,5-2.3,6.6
			c-1.5,1.6-3.4,2.4-5.8,2.4c-2.3,0-4.3-0.8-5.8-2.4c-1.5-1.6-2.3-3.8-2.3-6.6c0-2.8,0.8-5,2.3-6.6c1-1.1,2.3-1.8,3.7-2.2v-7.7
			c-4,0.4-7.3,2-9.9,4.7c-3.1,3.2-4.6,7.1-4.6,11.8c0,4.6,1.5,8.5,4.6,11.8c3.1,3.2,7.1,4.8,12,4.8s9-1.6,12-4.8
			c3.1-3.2,4.6-7.1,4.6-11.8C198,44.4,196.4,40.5,193.4,37.3z"/>
	</g>
	<g>
		<path fill="none" d="M15.1,32.8c1.6,0,2.8-1.3,2.8-2.8c0-1.6-1.3-2.8-2.8-2.8c0,0,0,0,0,0c-1.6,0-2.8,1.3-2.8,2.8c0,0,0,0,0,0
			C12.3,31.6,13.5,32.8,15.1,32.8z"/>
		<path fill="none" d="M22.1,40h-3.4c-0.1,0-0.2,0-0.3,0c-0.5,0.1-0.9,0.5-1,1.1c0,0.1,0,0.3,0,0.5l2.9,13.9
			c0.3,1.3,1.5,2.3,2.8,2.3h1.1c0.1,0,0.1,0,0.2,0c0.9-0.1,1.5-0.9,1.4-1.8l-1.1-9.4l-0.6-4.7C24,40.8,23.1,40,22.1,40z"/>
		<linearGradient id="SVGID_1_" gradientUnits="userSpaceOnUse" x1="20.4128" y1="24.1319" x2="26.1437" y2="12.7782">
			<stop  offset="0" style="stop-color:#44A6FF"/>
			<stop  offset="1" style="stop-color:#1BC1FF"/>
		</linearGradient>
		<path fill="url(#SVGID_1_)" d="M30.8,9.8c2.7-0.4,4.6-2.9,4.2-5.6c-0.4-2.7-2.9-4.6-5.6-4.2c-2.7,0.4-4.6,2.9-4.2,5.6
			c0.1,0.4,0.2,0.8,0.3,1.2L16,22.5h7.4L30.8,9.8z"/>
		<linearGradient id="SVGID_2_" gradientUnits="userSpaceOnUse" x1="26.2684" y1="23.9111" x2="25.4574" y2="12.5033">
			<stop  offset="0" style="stop-color:#000000"/>
			<stop  offset="0.1448" style="stop-color:#303030"/>
			<stop  offset="0.3812" style="stop-color:#797979"/>
			<stop  offset="0.5934" style="stop-color:#B2B2B2"/>
			<stop  offset="0.7737" style="stop-color:#DCDCDC"/>
			<stop  offset="0.9151" style="stop-color:#F6F6F6"/>
			<stop  offset="1" style="stop-color:#FFFFFF"/>
		</linearGradient>
		<path opacity="0.49" fill="url(#SVGID_2_)" d="M30.8,9.8c2.7-0.4,4.6-2.9,4.2-5.6c-0.4-2.7-2.9-4.6-5.6-4.2
			c-2.7,0.4-4.6,2.9-4.2,5.6c0.1,0.4,0.2,0.8,0.3,1.2L16,22.5h7.4L30.8,9.8z"/>
		<linearGradient id="SVGID_3_" gradientUnits="userSpaceOnUse" x1="57.7466" y1="22.6429" x2="48.8799" y2="10.2079">
			<stop  offset="0" style="stop-color:#47B2D4"/>
			<stop  offset="1" style="stop-color:#00D5C9"/>
		</linearGradient>
		<path fill="url(#SVGID_3_)" d="M49.7,6.8c1-2.5-0.2-5.4-2.7-6.4c-2.5-1-5.4,0.2-6.4,2.7c-1,2.5,0.2,5.4,2.7,6.4
			c0.4,0.2,0.8,0.3,1.2,0.3l7.4,12.7h7.3L49.7,6.8z"/>
		<linearGradient id="SVGID_4_" gradientUnits="userSpaceOnUse" x1="56.4448" y1="23.958" x2="48.0918" y2="9.9281">
			<stop  offset="0" style="stop-color:#000000"/>
			<stop  offset="0.1448" style="stop-color:#303030"/>
			<stop  offset="0.3812" style="stop-color:#797979"/>
			<stop  offset="0.5934" style="stop-color:#B2B2B2"/>
			<stop  offset="0.7737" style="stop-color:#DCDCDC"/>
			<stop  offset="0.9151" style="stop-color:#F6F6F6"/>
			<stop  offset="1" style="stop-color:#FFFFFF"/>
		</linearGradient>
		<path opacity="0.49" fill="url(#SVGID_4_)" d="M49.7,6.8c1-2.5-0.2-5.4-2.7-6.4c-2.5-1-5.4,0.2-6.4,2.7c-1,2.5,0.2,5.4,2.7,6.4
			c0.4,0.2,0.8,0.3,1.2,0.3l7.4,12.7h7.3L49.7,6.8z"/>
		<linearGradient id="SVGID_5_" gradientUnits="userSpaceOnUse" x1="-9.094947e-13" y1="28.6633" x2="75.2415" y2="28.6633">
			<stop  offset="0" style="stop-color:#FF427A"/>
			<stop  offset="1" style="stop-color:#FFC01D"/>
		</linearGradient>
		<path fill="url(#SVGID_5_)" d="M5.2,34.9h3.8h32.2c0.1-0.2,0.3-0.4,0.4-0.7c0.7-1.1,1.6-1.9,2.4-2.6c0.8-0.6,1.6-1,2.5-1.3
			c1.7-0.5,3.4-0.3,4.9,0.5c0.5-1.8,1.7-3.2,3.4-4c0.6-0.3,1.1-0.4,1.4-0.5l0.7-0.2l1.4,0l0.4,0l0.4,0l1.4,0l0.7,0.2
			c0.3,0.1,0.8,0.2,1.4,0.5c1.7,0.8,2.9,2.2,3.4,4c1.5-0.8,3.2-1,4.9-0.5c0.9,0.3,1.7,0.7,2.5,1.3c0.3,0.3,0.7,0.6,1,0.9
			c0.5-0.8,0.9-1.8,0.9-2.9v-2c0-2.9-2.3-5.2-5.2-5.2c0,0,0,0,0,0H59.2h-7.3H23.4H16H5.2c-2.9,0-5.2,2.3-5.2,5.2v2
			C0,32.5,2.3,34.9,5.2,34.9C5.2,34.9,5.2,34.9,5.2,34.9L5.2,34.9z M12.2,30c0-1.6,1.3-2.8,2.8-2.8c0,0,0,0,0,0c0,0,0,0,0,0
			c0,0,0,0,0,0c1.6,0,2.8,1.3,2.8,2.8c0,1.6-1.3,2.8-2.8,2.8C13.5,32.8,12.3,31.6,12.2,30C12.2,30,12.2,30,12.2,30z"/>
		<linearGradient id="SVGID_6_" gradientUnits="userSpaceOnUse" x1="50.2301" y1="61.8989" x2="17.791" y2="51.7347">
			<stop  offset="0" style="stop-color:#47B2D4"/>
			<stop  offset="1" style="stop-color:#00D5C9"/>
		</linearGradient>
		<path fill="url(#SVGID_6_)" d="M41.9,63.2c-1.1-1.4-1.6-3.1-1.3-4.9l-1.3-0.9c-0.3,0.3-0.8,0.4-1.2,0.4H37c-1.1,0-2.1-0.9-2.1-2
			L34.8,54l-10.1-7.5l1.1,9.4c0.1,0.9-0.5,1.7-1.4,1.8c-0.1,0-0.1,0-0.2,0H23c-1.4,0-2.6-1-2.8-2.3l-2.9-13.9c0-0.2,0-0.3,0-0.5
			l-8.4-6.2H5.2h0c0,0,0,0,0,0H4.9l4.2,24c0.6,3.6,3.7,6.2,7.4,6.2h27.2C43,64.5,42.4,63.9,41.9,63.2z"/>
		<linearGradient id="SVGID_7_" gradientUnits="userSpaceOnUse" x1="22.3091" y1="43.9338" x2="29.662" y2="35.4996">
			<stop  offset="0" style="stop-color:#44A6FF"/>
			<stop  offset="1" style="stop-color:#1BC1FF"/>
		</linearGradient>
		<path fill="url(#SVGID_7_)" d="M35.9,40C35.9,40,35.9,40,35.9,40l3.3,0c0.8,0,1.4,0.5,1.6,1.3c0.1,0,0.1-0.1,0.2-0.1
			c-1-1.8-1-4-0.1-5.9c0.1-0.1,0.2-0.3,0.2-0.4H8.9l8.4,6.2c0.1-0.5,0.5-0.9,1-1.1c0.1,0,0.2,0,0.3,0h3.4c1.1,0,2,0.8,2.1,1.9
			l0.6,4.7L34.8,54l-0.5-12.3C34.3,40.8,35,40,35.9,40z"/>
		<linearGradient id="SVGID_8_" gradientUnits="userSpaceOnUse" x1="39.0229" y1="58.5047" x2="46.3757" y2="50.0706">
			<stop  offset="0" style="stop-color:#44A6FF"/>
			<stop  offset="1" style="stop-color:#1BC1FF"/>
		</linearGradient>
		<path fill="url(#SVGID_8_)" d="M41.4,56c-0.4-0.1-0.8-0.2-1.2-0.4l0,0.2c0,0.7-0.4,1.2-0.9,1.6l1.3,0.9c0.1-0.3,0.1-0.6,0.2-1
			C41,56.8,41.2,56.4,41.4,56z"/>
		<path fill="#27334F" d="M72.2,52.2c0.8-0.1,1.5-0.1,2.3-0.1c0.5,0,1-0.1,1.5-0.5c0.5-0.4,0.9-0.9,1-1.6c0,0,0-0.1,0-0.1
			c0.1-0.2,0.1-0.4,0.1-0.6c0-0.3,0-0.7,0.1-1c0-0.1,0-0.1,0-0.2c0-0.3,0-0.5-0.1-0.8c-0.1-0.6-0.3-1.2-0.8-1.7
			c-0.5-0.5-1.1-0.7-1.8-0.7c-0.7,0-1.4,0-2.2,0c-0.9,0-1.7-0.6-2-1.4c0-0.1-0.1-0.3-0.1-0.5c0-0.6,0.2-1.2,0.7-1.6
			c0.5-0.5,1-1,1.5-1.5c0.7-0.8,0.9-1.8,0.4-2.8c-0.1-0.2-0.3-0.4-0.4-0.6c0,0,0,0,0,0c-0.4-0.7-1-1.2-1.6-1.6
			c-0.3-0.3-0.7-0.5-1.2-0.6c-0.8-0.2-1.6-0.1-2.2,0.4c-0.3,0.3-0.6,0.6-0.9,0.8c-0.3,0.3-0.7,0.7-1.1,1c-0.7,0.5-1.4,0.6-2.1,0.3
			c-0.5-0.3-0.9-0.7-1.1-1.3c-0.1-0.3-0.1-0.6-0.1-0.9c0-0.6,0-1.1,0-1.7c-0.1-1-0.5-1.8-1.4-2.3c-0.3-0.1-0.6-0.2-0.9-0.3
			c0,0-0.1,0-0.1,0c-0.2,0-0.4,0-0.6,0c-0.1,0-0.2,0-0.3,0c-0.1,0-0.2,0-0.3,0c-0.1,0-0.2,0-0.3,0c-0.1,0-0.2,0-0.3,0
			c-0.2,0-0.4,0-0.6,0c0,0-0.1,0-0.1,0c-0.3,0.1-0.6,0.1-0.9,0.3c-1,0.5-1.4,1.3-1.4,2.3c0,0.6,0,1.1,0,1.7c0,0.3,0,0.6-0.1,0.9
			c-0.1,0.6-0.5,1-1.1,1.3c-0.7,0.3-1.5,0.3-2.1-0.3c-0.4-0.3-0.7-0.7-1.1-1c-0.3-0.3-0.6-0.6-0.9-0.8c-0.7-0.5-1.4-0.7-2.2-0.4
			c-0.4,0.1-0.8,0.3-1.2,0.6c-0.6,0.5-1.2,1-1.6,1.6c0,0,0,0,0,0c-0.1,0.2-0.3,0.4-0.4,0.6c-0.5,1-0.3,2,0.4,2.8
			c0.5,0.5,1,1,1.5,1.5c0.4,0.4,0.7,1,0.7,1.6c0,0.2,0,0.3-0.1,0.5c-0.3,0.8-1.2,1.4-2,1.4c-0.7,0-1.4,0-2.2,0
			c-0.7,0-1.3,0.3-1.8,0.7c-0.5,0.5-0.7,1-0.8,1.7c0,0.3,0,0.5-0.1,0.8c0,0.1,0,0.1,0,0.2c0,0.3,0,0.7,0.1,1c0,0.2,0.1,0.4,0.1,0.6
			c0,0,0,0.1,0,0.1c0.1,0.6,0.4,1.2,1,1.6c0.4,0.3,0.9,0.4,1.5,0.5c0.8,0,1.5,0.1,2.3,0.1c0.8,0.1,1.4,0.4,1.8,1.1
			c0.4,0.7,0.5,1.9-0.2,2.6c-0.5,0.5-0.9,1-1.4,1.5c-0.3,0.3-0.6,0.7-0.7,1.1c-0.2,0.8-0.2,1.5,0.3,2.2c0.6,0.7,1.2,1.4,2,1.9
			c0.3,0.2,0.6,0.4,0.9,0.4c0.8,0.1,1.5-0.1,2.1-0.6c0.6-0.5,1.1-1.1,1.6-1.6c0.2-0.2,0.5-0.4,0.8-0.5c0.5-0.1,1-0.1,1.4,0
			c0,0,0,0,0.1,0c0.5,0.4,0.9,0.9,1,1.6c0,0.3,0.1,0.5,0.1,0.8c0,0.6,0,1.2,0,1.7c0,1.1,0.6,1.9,1.6,2.2c0.7,0.2,1.3,0.4,2.1,0.4
			c0.7,0,1.4-0.1,2.1-0.4c1-0.4,1.6-1.1,1.6-2.2c0-0.6,0-1.2,0-1.7c0-0.3,0-0.5,0.1-0.8c0.1-0.7,0.5-1.2,1-1.6c0,0,0,0,0.1,0
			c0.1,0,0.3-0.1,0.4-0.1l-2.1-2c-1,0.3-2,0.5-3.1,0.5c-5.6,0-10.2-4.6-10.2-10.2c0-5.6,4.6-10.2,10.2-10.2
			c5.6,0,10.2,4.6,10.2,10.2c0,0.9-0.1,1.8-0.3,2.6l2.1,1.9C71,52.5,71.5,52.3,72.2,52.2z"/>
		<g>
			
				<linearGradient id="SVGID_9_" gradientUnits="userSpaceOnUse" x1="71.1201" y1="38.4795" x2="73.7414" y2="32.0617" gradientTransform="matrix(0.9998 -1.745241e-02 1.745241e-02 0.9998 -11.6206 12.4744)">
				<stop  offset="0" style="stop-color:#FF427A"/>
				<stop  offset="1" style="stop-color:#FFC01D"/>
			</linearGradient>
			<path fill="url(#SVGID_9_)" d="M65.9,51.2c0.1-0.2,0.1-0.4,0.2-0.6c0.4-1.5,0.4-3,0-4.4c-0.5-1.6-1.5-2.8-2.8-3.8
				C61.9,41.5,60.6,41,59,41c-0.8,0-1.5,0.1-2.3,0.4c0.1,0.1,0.1,0.1,0.2,0.2c0.9,0.9,1.9,1.8,2.8,2.8c0.3,0.2,0.5,0.5,0.6,0.8
				c0.6,1,0.7,2.1,0.2,3.1c-0.3,0.6-0.7,1.1-1.2,1.6L66,52C65.8,51.8,65.8,51.5,65.9,51.2z"/>
			
				<linearGradient id="SVGID_10_" gradientUnits="userSpaceOnUse" x1="82.3011" y1="52.5172" x2="70.3693" y2="41.5797" gradientTransform="matrix(0.9998 -1.745241e-02 1.745241e-02 0.9998 -11.6206 12.4744)">
				<stop  offset="0" style="stop-color:#FF427A"/>
				<stop  offset="1" style="stop-color:#FFC01D"/>
			</linearGradient>
			<path fill="url(#SVGID_10_)" d="M73.7,59.9c-0.1-0.4-0.4-0.8-0.8-1.1c-1.8-1.8-3.7-3.5-5.5-5.3c-0.5-0.4-0.9-0.9-1.4-1.4
				c0,0-0.1-0.1-0.1-0.2l-6.6-2.1c0,0,0,0-0.1,0.1c-0.9,0.7-1.9,1-3,0.8c-0.7-0.1-1.3-0.4-1.8-0.9c-0.7-0.6-1.3-1.2-1.9-1.8
				c-0.4-0.3-0.7-0.7-1-1c0,0-0.1-0.1-0.2-0.1c-0.1,0.1-0.3,0.1-0.3,0.3c0,0.4-0.1,0.8-0.1,1.2c0,1,0.1,2,0.5,2.9
				c0.6,1.6,1.7,2.8,3.2,3.8c1.7,1.1,3.5,1.4,5.4,0.9c0.5-0.1,0.9-0.3,1.4-0.4c0.4-0.1,0.8-0.1,1.1,0.3c0.4,0.4,0.9,0.8,1.3,1.2
				c1.4,1.3,2.8,2.7,4.2,4c0.5,0.5,1.1,1,1.7,1.5c0.4,0.3,0.8,0.5,1.3,0.5c0.5,0,1,0,1.4-0.3c0.4-0.3,0.8-0.6,1-1
				C73.9,61.2,73.9,60.6,73.7,59.9z M71.2,61.9c-0.7,0-1.3-0.6-1.3-1.2c0-0.7,0.5-1.3,1.3-1.3c0.6,0,1.3,0.4,1.3,1.2
				C72.5,61.3,72,61.9,71.2,61.9z"/>
		</g>
	</g>
</g>
</svg>
