<svg xmlns="http://www.w3.org/2000/svg" xmlns:xlink="http://www.w3.org/1999/xlink" viewBox="0 0 345.46 57.88"><defs><style>.cls-1{isolation:isolate;}.cls-2{fill:none;}.cls-3{fill:url(#linear-gradient);}.cls-4,.cls-6{opacity:0.49;mix-blend-mode:multiply;}.cls-4{fill:url(#linear-gradient-2);}.cls-5{fill:url(#linear-gradient-3);}.cls-6{fill:url(#linear-gradient-4);}.cls-7{fill:url(#linear-gradient-5);}.cls-8{fill:url(#linear-gradient-6);}.cls-9{fill:#252525;}.cls-10{fill:url(#linear-gradient-7);}.cls-11{fill:#f8003c;}</style><linearGradient id="linear-gradient" x1="15.82" y1="18.7" x2="20.26" y2="9.9" gradientUnits="userSpaceOnUse"><stop offset="0" stop-color="#44a6ff"/><stop offset="1" stop-color="#1bc1ff"/></linearGradient><linearGradient id="linear-gradient-2" x1="20.35" y1="18.53" x2="19.73" y2="9.69" gradientUnits="userSpaceOnUse"><stop offset="0"/><stop offset="0.14" stop-color="#303030"/><stop offset="0.38" stop-color="#797979"/><stop offset="0.59" stop-color="#b2b2b2"/><stop offset="0.77" stop-color="#dcdcdc"/><stop offset="0.92" stop-color="#f6f6f6"/><stop offset="1" stop-color="#fff"/></linearGradient><linearGradient id="linear-gradient-3" x1="44.75" y1="17.55" x2="37.88" y2="7.91" gradientUnits="userSpaceOnUse"><stop offset="0" stop-color="#47b2d4"/><stop offset="1" stop-color="#00d5c9"/></linearGradient><linearGradient id="linear-gradient-4" x1="43.74" y1="18.56" x2="37.26" y2="7.69" xlink:href="#linear-gradient-2"/><linearGradient id="linear-gradient-5" y1="22.21" x2="58.3" y2="22.21" gradientUnits="userSpaceOnUse"><stop offset="0" stop-color="#f8003c"/><stop offset="1" stop-color="#ff8438"/></linearGradient><linearGradient id="linear-gradient-6" x1="18.83" y1="27.07" x2="18.83" y2="46.06" gradientUnits="userSpaceOnUse"><stop offset="0" stop-color="#00d5c9"/><stop offset="1" stop-color="#0099ac"/></linearGradient><linearGradient id="linear-gradient-7" x1="56.67" y1="47.89" x2="47.45" y2="39.43" xlink:href="#linear-gradient-5"/></defs><g class="cls-1"><g id="Layer_2" data-name="Layer 2"><g id="Layer_1-2" data-name="Layer 1"><path class="cls-2" d="M11.68,25.44a2.19,2.19,0,0,0,0-4.38h0a2.19,2.19,0,0,0-2.18,2.19h0A2.19,2.19,0,0,0,11.68,25.44Z"/><path class="cls-2" d="M17.09,31H14.42l-.2,0a1,1,0,0,0-.78.82,1,1,0,0,0,0,.35L15.67,43a2.23,2.23,0,0,0,2.19,1.78h1.05A1.25,1.25,0,0,0,20,43.36L19.14,36l-.43-3.6A1.63,1.63,0,0,0,17.09,31Z"/><path class="cls-3" d="M23.86,7.6a3.82,3.82,0,1,0-4.31-3.25,4.59,4.59,0,0,0,.24.9L12.43,17.41h5.7Z"/><path class="cls-4" d="M23.86,7.6a3.82,3.82,0,1,0-4.31-3.25,4.59,4.59,0,0,0,.24.9L12.43,17.41h5.7Z"/><path class="cls-5" d="M38.49,5.25a3.82,3.82,0,1,0-5,2.1,4.09,4.09,0,0,0,.91.25l5.73,9.81h5.68Z"/><path class="cls-6" d="M38.49,5.25a3.82,3.82,0,1,0-5,2.1,4.09,4.09,0,0,0,.91.25l5.73,9.81h5.68Z"/><path class="cls-7" d="M4,27H31.86a4.76,4.76,0,0,1,.32-.51,8.19,8.19,0,0,1,1.89-2,5.94,5.94,0,0,1,1.94-1,4.93,4.93,0,0,1,3.77.39,5,5,0,0,1,3.71-3.45l.54-.16,1.12,0h.59l1.12,0,.54.16a5,5,0,0,1,3.72,3.45,4.93,4.93,0,0,1,3.77-.38,5.82,5.82,0,0,1,1.94,1c.25.2.53.44.8.7A4,4,0,0,0,58.3,23V21.43a4,4,0,0,0-4-4H4a4,4,0,0,0-4,4V23a4,4,0,0,0,4,4Zm5.48-3.76a2.19,2.19,0,0,1,2.18-2.19h0a2.19,2.19,0,1,1-2.19,2.19Z"/><path class="cls-8" d="M32.45,49a4.7,4.7,0,0,1-1-3.83,6.74,6.74,0,0,1,.17-.75,5,5,0,0,1,.47-1,5,5,0,0,1-1-.3v.14a1.64,1.64,0,0,1-.66,1.24,1.6,1.6,0,0,1-1,.32h-.88A1.62,1.62,0,0,1,27,43.2L27,41.84l-.38-9.56A1.23,1.23,0,0,1,27.79,31h2.54a1.25,1.25,0,0,1,1.22,1l.17-.06a5,5,0,0,1,0-4.56,3.72,3.72,0,0,1,.19-.34h-28L7,45.6a5.84,5.84,0,0,0,5.73,4.83H33.84A11.88,11.88,0,0,1,32.45,49ZM18.91,44.75H17.86A2.23,2.23,0,0,1,15.67,43l-2.22-10.8a1,1,0,0,1,0-.35,1,1,0,0,1,.78-.82l.2,0h2.67a1.63,1.63,0,0,1,1.62,1.45l.43,3.6L20,43.36A1.25,1.25,0,0,1,18.91,44.75Z"/><path class="cls-9" d="M55.94,40.46c.58,0,1.17-.06,1.76-.08A2.1,2.1,0,0,0,58.84,40a1.79,1.79,0,0,0,.75-1.21.22.22,0,0,1,0-.08,2.6,2.6,0,0,0,.1-.5c0-.26,0-.53,0-.79V37.3c0-.21,0-.42-.06-.62a2.08,2.08,0,0,0-.58-1.31,2,2,0,0,0-1.37-.57l-1.68,0a1.75,1.75,0,0,1-1.58-1.09c0-.12,0-.23,0-.35A1.63,1.63,0,0,1,55,32.08c.39-.39.78-.77,1.15-1.17a1.88,1.88,0,0,0,.34-2.19,4.19,4.19,0,0,0-.31-.5h0A4.87,4.87,0,0,0,54.91,27a2.61,2.61,0,0,0-.9-.48,1.78,1.78,0,0,0-1.73.35,8.28,8.28,0,0,0-.68.64,10.2,10.2,0,0,1-.82.79,1.56,1.56,0,0,1-1.64.21,1.59,1.59,0,0,1-.81-1,3.59,3.59,0,0,1,0-.73c0-.44,0-.89,0-1.33a2,2,0,0,0-1.12-1.78,4.89,4.89,0,0,0-.68-.21l-.08,0H44.53l-.08,0a5,5,0,0,0-.69.21,2,2,0,0,0-1.12,1.78c0,.44,0,.89,0,1.33a4.48,4.48,0,0,1,0,.73,1.6,1.6,0,0,1-.82,1,1.56,1.56,0,0,1-1.64-.21c-.29-.24-.54-.52-.81-.79s-.44-.45-.68-.64a1.79,1.79,0,0,0-1.73-.35A2.52,2.52,0,0,0,36,27a4.91,4.91,0,0,0-1.23,1.26h0a3.21,3.21,0,0,0-.31.5,1.88,1.88,0,0,0,.33,2.19c.37.4.76.78,1.15,1.17a1.63,1.63,0,0,1,.53,1.26,2.11,2.11,0,0,1-.05.35,1.74,1.74,0,0,1-1.58,1.09l-1.68,0a1.91,1.91,0,0,0-1.36.57,2.09,2.09,0,0,0-.59,1.31l-.06.62v.15c0,.26,0,.53.05.79a2.61,2.61,0,0,0,.11.5.22.22,0,0,0,0,.08A1.77,1.77,0,0,0,32.05,40a2.1,2.1,0,0,0,1.14.35c.59,0,1.18,0,1.77.08a1.64,1.64,0,0,1,1.37.83,1.75,1.75,0,0,1-.13,2c-.36.38-.71.78-1.07,1.16a2.24,2.24,0,0,0-.54.85A1.76,1.76,0,0,0,34.85,47a8.2,8.2,0,0,0,1.53,1.47,1.62,1.62,0,0,0,.69.32,1.93,1.93,0,0,0,1.65-.5c.43-.4.85-.82,1.27-1.22a1.56,1.56,0,0,1,.64-.41,1.87,1.87,0,0,1,1.1,0l.05,0a1.8,1.8,0,0,1,.78,1.2,4.07,4.07,0,0,1,0,.61c0,.45,0,.9,0,1.35a1.77,1.77,0,0,0,1.26,1.72,4.51,4.51,0,0,0,1.59.28A4.59,4.59,0,0,0,47,51.64a1.76,1.76,0,0,0,1.25-1.72c0-.45,0-.9,0-1.35a4.08,4.08,0,0,1,0-.61,1.81,1.81,0,0,1,.79-1.2l.05,0a1.55,1.55,0,0,1,.31-.06l-1.62-1.51a8,8,0,0,1-2.41.37,7.91,7.91,0,1,1,7.92-7.91,7.78,7.78,0,0,1-.27,2l1.61,1.5A1.64,1.64,0,0,1,55.94,40.46Z"/><path class="cls-10" d="M57.12,46.39a2,2,0,0,0-.59-.86l-4.26-4.1-1.06-1-.1-.12a.62.62,0,0,1-.08-.55l.12-.47A5.8,5.8,0,0,0,49,32.85a5.38,5.38,0,0,0-3.25-1.1A6.27,6.27,0,0,0,44,32l.13.15,2.19,2.15a2.83,2.83,0,0,1,.5.64,2.58,2.58,0,0,1,.15,2.44A3.6,3.6,0,0,1,46,38.63l0,0a2.73,2.73,0,0,1-2.3.63,2.61,2.61,0,0,1-1.38-.68c-.51-.46-1-.95-1.48-1.43L40,36.38s-.09-.07-.12-.06-.21.1-.22.24c0,.31-.06.63-.07.94a5.5,5.5,0,0,0,.36,2.27,6.15,6.15,0,0,0,2.48,2.92,5.36,5.36,0,0,0,4.16.74c.35-.08.7-.2,1-.29a.84.84,0,0,1,.89.19c.33.32.68.62,1,.94,1.08,1,2.15,2.07,3.24,3.1.42.41.84.81,1.29,1.19A1.52,1.52,0,0,0,55,49a1.77,1.77,0,0,0,1.08-.23,3.12,3.12,0,0,0,.82-.8A1.71,1.71,0,0,0,57.12,46.39ZM55.2,48a1,1,0,0,1-1-.95,1,1,0,0,1,1-1,.93.93,0,0,1,1,1A1,1,0,0,1,55.2,48Z"/><path class="cls-2" d="M152.18,28.52a7.11,7.11,0,0,0-10.36,0,8.73,8.73,0,0,0-2,5.88,8.7,8.7,0,0,0,2,5.88,7.09,7.09,0,0,0,10.36,0,8.61,8.61,0,0,0,2-5.88A8.65,8.65,0,0,0,152.18,28.52Z"/><path class="cls-2" d="M270.51,34.4a8.8,8.8,0,0,0-2-5.93,7,7,0,0,0-10.23,0,8.62,8.62,0,0,0-2,5.85,8.63,8.63,0,0,0,2,5.86,7,7,0,0,0,10.24,0A8.44,8.44,0,0,0,270.51,34.4Z"/><path class="cls-2" d="M172.07,40.31a6.93,6.93,0,0,0,10.26,0,8.72,8.72,0,0,0,2-5.91,8.59,8.59,0,0,0-2-5.9,7.06,7.06,0,0,0-10.26,0,8.5,8.5,0,0,0-2,5.82A9,9,0,0,0,172.07,40.31Z"/><path class="cls-2" d="M332.64,26a6.54,6.54,0,0,0-4.34,1.53,5.91,5.91,0,0,0-2,3.67h12.88a6,6,0,0,0-2-3.72A6.78,6.78,0,0,0,332.64,26Z"/><path class="cls-9" d="M96.28,28.3a30.06,30.06,0,0,0-5.92-1.62c-2.21-.39-3.94-.76-5.12-1.09a6.43,6.43,0,0,1-2.72-1.41,3.14,3.14,0,0,1-1-2.43,4,4,0,0,1,1.68-3.42,9,9,0,0,1,9.62.31,5.88,5.88,0,0,1,2.21,4.1l0,.34h6.37v-.4a10.93,10.93,0,0,0-1.92-5.79,12,12,0,0,0-4.8-4,15.94,15.94,0,0,0-6.86-1.43,15.67,15.67,0,0,0-6.63,1.33,10.79,10.79,0,0,0-4.56,3.78,9.87,9.87,0,0,0-1.64,5.56,8.79,8.79,0,0,0,1.61,5.48,9.62,9.62,0,0,0,4.1,3.1,30.45,30.45,0,0,0,5.9,1.59,51.69,51.69,0,0,1,5.16,1.14A6.8,6.8,0,0,1,94.61,35a3.27,3.27,0,0,1,1,2.5A4,4,0,0,1,93.75,41a8.54,8.54,0,0,1-5,1.31,8.69,8.69,0,0,1-5.69-1.79,6.61,6.61,0,0,1-2.39-4.72l0-.34-6.38-.11v.39A11.61,11.61,0,0,0,76.2,42a12.34,12.34,0,0,0,5.08,4.3,17.23,17.23,0,0,0,7.46,1.54,16.24,16.24,0,0,0,6.86-1.41,11.33,11.33,0,0,0,4.75-4,10.09,10.09,0,0,0,1.72-5.76,8.38,8.38,0,0,0-1.64-5.38A10,10,0,0,0,96.28,28.3Z"/><path class="cls-9" d="M119.64,20.93a9.8,9.8,0,0,0-7.68,3.3V11.83l-6.15,2V47.58H112V34.25a9,9,0,0,1,1.74-5.84,5.77,5.77,0,0,1,4.74-2.08,5.21,5.21,0,0,1,4.29,1.76,8.24,8.24,0,0,1,1.49,5.31V47.58h6.15V33.1c0-4.22-1-7.34-3-9.27A10.67,10.67,0,0,0,119.64,20.93Z"/><path class="cls-9" d="M154,22.62a15.38,15.38,0,0,0-14,0,11.94,11.94,0,0,0-4.75,4.78,14.51,14.51,0,0,0-1.67,7,14.67,14.67,0,0,0,1.67,7.06A11.87,11.87,0,0,0,140,46.21a15.53,15.53,0,0,0,14,0,11.74,11.74,0,0,0,4.75-4.75,14.56,14.56,0,0,0,1.68-7.06,14.41,14.41,0,0,0-1.68-7A11.92,11.92,0,0,0,154,22.62Zm-7,19.91a6.45,6.45,0,0,1-5.17-2.25,8.7,8.7,0,0,1-2-5.88,8.73,8.73,0,0,1,2-5.88,7.11,7.11,0,0,1,10.36,0,8.65,8.65,0,0,1,2,5.88,8.61,8.61,0,0,1-2,5.88A6.51,6.51,0,0,1,147,42.53Z"/><path class="cls-9" d="M184.53,22.55a12.78,12.78,0,0,0-6.44-1.62A10.3,10.3,0,0,0,170,24.52l-.56-3.29-5.4,2V57.58l6.15-2V44.68A9.48,9.48,0,0,0,173,46.79a11.43,11.43,0,0,0,5.12,1.09,12.49,12.49,0,0,0,6.44-1.68A11.58,11.58,0,0,0,189,41.45a15.07,15.07,0,0,0,1.59-7.05A15.32,15.32,0,0,0,189,27.25,11.33,11.33,0,0,0,184.53,22.55Zm-7.34,3.73a6.46,6.46,0,0,1,5.14,2.22,8.59,8.59,0,0,1,2,5.9,8.72,8.72,0,0,1-2,5.91,6.93,6.93,0,0,1-10.26,0,9,9,0,0,1-2-6,8.5,8.5,0,0,1,2-5.82A6.43,6.43,0,0,1,177.19,26.28Z"/><polygon class="cls-9" points="201.21 32.33 215.31 32.33 215.31 26.63 201.21 26.63 201.21 17.68 218.31 17.68 218.31 11.83 194.71 11.83 194.71 47.58 218.91 47.58 218.91 41.73 201.21 41.73 201.21 32.33"/><path class="cls-9" d="M236.19,20.93a10.39,10.39,0,0,0-8,3.18l-.52-2.88-5.39,2V47.58h6.15V34.3a9.11,9.11,0,0,1,1.74-5.89,5.76,5.76,0,0,1,4.74-2.08,5.12,5.12,0,0,1,4.26,1.76,8.3,8.3,0,0,1,1.46,5.31V47.58h6.2V33.1c0-4.22-1-7.34-3-9.27A10.6,10.6,0,0,0,236.19,20.93Z"/><path class="cls-9" d="M270.7,24.63a9.78,9.78,0,0,0-3-2.51,10.71,10.71,0,0,0-5.18-1.19,12.38,12.38,0,0,0-6.39,1.67,11.92,11.92,0,0,0-4.47,4.73,14.69,14.69,0,0,0-1.62,7,15,15,0,0,0,1.6,7.1,11.32,11.32,0,0,0,4.44,4.65,12.76,12.76,0,0,0,6.44,1.63,9.84,9.84,0,0,0,8-3.45V46c0,4.56-2.28,6.78-7,6.78a8.06,8.06,0,0,1-4.45-1.12A4.85,4.85,0,0,1,257,48.52l-.06-.29h-6.21l0,.4a9,9,0,0,0,3.76,6.85,14.62,14.62,0,0,0,8.67,2.4c4.54,0,8-1,10.15-3.08s3.32-5,3.32-8.65V21.23h-5.39Zm-7.26,17.75a6.43,6.43,0,0,1-5.12-2.22,8.63,8.63,0,0,1-2-5.86,8.62,8.62,0,0,1,2-5.85,7,7,0,0,1,10.23,0,8.8,8.8,0,0,1,2,5.93,8.44,8.44,0,0,1-1.95,5.78A6.45,6.45,0,0,1,263.44,42.38Z"/><rect class="cls-9" x="281.16" y="21.23" width="6.15" height="26.35"/><path class="cls-11" d="M284.24,11a3.58,3.58,0,0,0-2.61,1,3.46,3.46,0,0,0-1.07,2.59,3.45,3.45,0,0,0,1.07,2.59,3.8,3.8,0,0,0,5.22,0,3.47,3.47,0,0,0,1.06-2.59A3.49,3.49,0,0,0,286.85,12,3.58,3.58,0,0,0,284.24,11Z"/><path class="cls-9" d="M305.74,20.93a10.39,10.39,0,0,0-8,3.18l-.52-2.88-5.39,2V47.58H298V34.3a9.11,9.11,0,0,1,1.74-5.89,5.75,5.75,0,0,1,4.74-2.08,5.12,5.12,0,0,1,4.26,1.76,8.3,8.3,0,0,1,1.46,5.31V47.58h6.2V33.1c0-4.22-1-7.34-3-9.27A10.58,10.58,0,0,0,305.74,20.93Z"/><path class="cls-9" d="M343.74,26.86a11.63,11.63,0,0,0-4.6-4.39,14.21,14.21,0,0,0-6.7-1.54,13.24,13.24,0,0,0-6.67,1.67h0a11.7,11.7,0,0,0-4.55,4.75,15.08,15.08,0,0,0-1.62,7.1,14.38,14.38,0,0,0,1.67,7A11.88,11.88,0,0,0,326,46.21a14.76,14.76,0,0,0,7.16,1.67,12.16,12.16,0,0,0,7.91-2.59A10.74,10.74,0,0,0,345,38.67l.08-.44H339l-.08.28a5.18,5.18,0,0,1-2.1,3.11,6.82,6.82,0,0,1-4,1.11A6.41,6.41,0,0,1,328,40.89a7.57,7.57,0,0,1-2-5h19.24l.05-.32a15.29,15.29,0,0,0,.15-2.11A13.21,13.21,0,0,0,343.74,26.86Zm-17.47,4.37a5.91,5.91,0,0,1,2-3.67A6.54,6.54,0,0,1,332.64,26a6.78,6.78,0,0,1,4.48,1.48,6,6,0,0,1,2,3.72Z"/></g></g></g></svg>